<svg width="32" height="33" viewBox="0 0 32 33" fill="none" xmlns="http://www.w3.org/2000/svg">
<path d="M27.4533 29.8333C27.4533 24.6733 22.32 20.5 16 20.5C9.68 20.5 4.54666 24.6733 4.54666 29.8333M16 16.5C17.7681 16.5 19.4638 15.7976 20.714 14.5473C21.9643 13.2971 22.6667 11.6014 22.6667 9.83329C22.6667 8.06518 21.9643 6.36949 20.714 5.11925C19.4638 3.869 17.7681 3.16663 16 3.16663C14.2319 3.16663 12.5362 3.869 11.2859 5.11925C10.0357 6.36949 9.33333 8.06518 9.33333 9.83329C9.33333 11.6014 10.0357 13.2971 11.2859 14.5473C12.5362 15.7976 14.2319 16.5 16 16.5Z" stroke="#2E90FA" stroke-width="2" stroke-linecap="round" stroke-linejoin="round"/>
</svg>
