<svg width="32" height="32" viewBox="0 0 32 32" fill="none" xmlns="http://www.w3.org/2000/svg">
<path d="M21.88 5.33328C24.4667 5.33328 26.5467 7.42661 26.5467 9.99995C26.5467 12.5199 24.5467 14.5733 22.0534 14.6666C21.9382 14.6533 21.8219 14.6533 21.7067 14.6666M24.4534 26.6666C25.4134 26.4666 26.32 26.0799 27.0667 25.5066C29.1467 23.9466 29.1467 21.3733 27.0667 19.8133C26.3334 19.2533 25.44 18.8799 24.4934 18.6666M12.2134 14.4933C12.08 14.4799 11.92 14.4799 11.7734 14.4933C10.243 14.4413 8.7929 13.7957 7.73022 12.6932C6.66753 11.5907 6.0757 10.1179 6.08004 8.58661C6.08004 5.31995 8.72004 2.66661 12 2.66661C13.5684 2.63832 15.0837 3.2342 16.2126 4.32316C17.3416 5.41212 17.9918 6.90497 18.02 8.47328C18.0483 10.0416 17.4525 11.5569 16.3635 12.6859C15.2745 13.8148 13.7817 14.465 12.2134 14.4933ZM5.54671 19.4133C2.32004 21.5733 2.32004 25.0933 5.54671 27.2399C9.21338 29.6933 15.2267 29.6933 18.8934 27.2399C22.12 25.0799 22.12 21.5599 18.8934 19.4133C15.24 16.9733 9.22671 16.9733 5.54671 19.4133Z" stroke="#2E90FA" stroke-width="2" stroke-linecap="round" stroke-linejoin="round"/>
</svg>
