<svg width="40" height="40" viewBox="0 0 40 40" fill="none" xmlns="http://www.w3.org/2000/svg">
<path d="M3.5 14.6667V10.5C3.5 6.35 6.85 3 11 3H15.1667M25.1667 3H29.3333C33.4833 3 36.8333 6.35 36.8333 10.5V14.6667M36.8333 26.3333V28.8333C36.8333 32.9833 33.4833 36.3333 29.3333 36.3333H26.8333M15.1667 36.3333H11C6.85 36.3333 3.5 32.9833 3.5 28.8333V24.6667M17.6667 11.3333V14.6667C17.6667 16.3333 16.8333 17.1667 15.1667 17.1667H11.8333C10.1667 17.1667 9.33333 16.3333 9.33333 14.6667V11.3333C9.33333 9.66667 10.1667 8.83333 11.8333 8.83333H15.1667C16.8333 8.83333 17.6667 9.66667 17.6667 11.3333ZM31 11.3333V14.6667C31 16.3333 30.1667 17.1667 28.5 17.1667H25.1667C23.5 17.1667 22.6667 16.3333 22.6667 14.6667V11.3333C22.6667 9.66667 23.5 8.83333 25.1667 8.83333H28.5C30.1667 8.83333 31 9.66667 31 11.3333ZM17.6667 24.6667V28C17.6667 29.6667 16.8333 30.5 15.1667 30.5H11.8333C10.1667 30.5 9.33333 29.6667 9.33333 28V24.6667C9.33333 23 10.1667 22.1667 11.8333 22.1667H15.1667C16.8333 22.1667 17.6667 23 17.6667 24.6667ZM31 24.6667V28C31 29.6667 30.1667 30.5 28.5 30.5H25.1667C23.5 30.5 22.6667 29.6667 22.6667 28V24.6667C22.6667 23 23.5 22.1667 25.1667 22.1667H28.5C30.1667 22.1667 31 23 31 24.6667Z" stroke="#2E90FA" stroke-width="2" stroke-linecap="round" stroke-linejoin="round"/>
</svg>
