<svg width="41" height="40" viewBox="0 0 41 40" fill="none" xmlns="http://www.w3.org/2000/svg">
<path d="M15.5 36.6667H12.1666C5.49998 36.6667 3.83331 35 3.83331 28.3334V11.6667C3.83331 5.00004 5.49998 3.33337 12.1666 3.33337H14.6666C17.1666 3.33337 17.7166 4.06671 18.6666 5.33337L21.1666 8.66671C21.8 9.50004 22.1666 10 23.8333 10H28.8333C35.5 10 37.1666 11.6667 37.1666 18.3334V21.6667" stroke="#2E90FA" stroke-width="2" stroke-miterlimit="10" stroke-linecap="round" stroke-linejoin="round"/>
<path d="M23.4333 30.5333C19.5167 30.8167 19.5167 36.4833 23.4333 36.7667H32.7C33.8167 36.7667 34.9167 36.35 35.7333 35.6C38.4833 33.2 37.0167 28.4 33.4 27.95C32.1 20.1333 20.8 23.1 23.4667 30.55" stroke="#2E90FA" stroke-width="2" stroke-miterlimit="10" stroke-linecap="round" stroke-linejoin="round"/>
</svg>
