<svg width="41" height="40" viewBox="0 0 41 40" fill="none" xmlns="http://www.w3.org/2000/svg">
<path d="M14.4667 20L18.4833 24.0333L26.5333 15.9667" stroke="#2E90FA" stroke-width="2" stroke-linecap="round" stroke-linejoin="round"/>
<path d="M18.4167 4.08333C19.5667 3.09999 21.45 3.09999 22.6167 4.08333L25.25 6.34999C25.75 6.78333 26.6833 7.13333 27.35 7.13333H30.1833C31.95 7.13333 33.4 8.58333 33.4 10.35V13.1833C33.4 13.8333 33.75 14.7833 34.1833 15.2833L36.45 17.9167C37.4333 19.0667 37.4333 20.95 36.45 22.1167L34.1833 24.75C33.75 25.25 33.4 26.1833 33.4 26.85V29.6833C33.4 31.45 31.95 32.9 30.1833 32.9H27.35C26.7 32.9 25.75 33.25 25.25 33.6833L22.6167 35.95C21.4667 36.9333 19.5833 36.9333 18.4167 35.95L15.7833 33.6833C15.2833 33.25 14.35 32.9 13.6833 32.9H10.8C9.03333 32.9 7.58333 31.45 7.58333 29.6833V26.8333C7.58333 26.1833 7.23333 25.25 6.81666 24.75L4.56666 22.1C3.59999 20.95 3.59999 19.0833 4.56666 17.9333L6.81666 15.2833C7.23333 14.7833 7.58333 13.85 7.58333 13.2V10.3333C7.58333 8.56666 9.03333 7.11666 10.8 7.11666H13.6833C14.3333 7.11666 15.2833 6.76666 15.7833 6.33333L18.4167 4.08333Z" stroke="#2E90FA" stroke-width="2" stroke-linecap="round" stroke-linejoin="round"/>
</svg>
